#!OML:ASF I:\Actors\actors\Patient Classification 2\Patient 1\Session 1\actor1.ASF
:FULLY-SPECIFIED
:DEGREES
278
root -1.05495 18.7978 5.77189 1.38917 12.3632 -2.6097
lowerback 14.6533 2.90618 8.35106
upperback 1.51209 5.44319 3.49849
thorax -6.1693 2.49177 -2.02217
lowerneck 0.843212 2.07861 1.49862
upperneck -3.57712 2.51264 -10.7356
head -1.12196 1.40858 -3.78708
rclavicle -2.26615e-014 -3.18055e-014
rhumerus 31.5635 21.1944 -56.3718
rradius 123.39
rwrist -4.93407
rhand -37.3131 -27.5419
rfingers 7.12502
rthumb -10.3767 -57.2659
lclavicle -2.26615e-014 -3.18055e-014
lhumerus -2.46109 -51.5939 86.3922
lradius 117.186
lwrist 14.2782
lhand -27.0911 -67.6931
lfingers 7.12502
lthumb -0.508091 -37.714
rfemur 0 0 0
rtibia 0
rfoot 0 0
rtoes 0
lfemur -11.1083 -7.82151 -12.6334
ltibia 25.9644
lfoot -17.528 5.74491
ltoes -57.1922
279
root -1.05427 18.797 5.77584 1.36232 12.7291 -2.63333
lowerback 14.6529 2.93336 8.27392
upperback 1.55787 5.46521 3.52167
thorax -6.1273 2.50799 -1.95778
lowerneck 0.644238 2.09702 1.37458
upperneck -3.58154 2.53935 -10.7351
head -1.08728 1.4189 -3.75936
rclavicle 3.29983e-014 9.54166e-015
rhumerus 31.9137 21.1811 -56.2274
rradius 123.277
rwrist -4.97429
rhand -37.3322 -27.4263
rfingers 7.12502
rthumb -10.3951 -57.1494
lclavicle 3.29983e-014 9.54166e-015
lhumerus -2.66786 -51.5934 86.6069
lradius 117.169
lwrist 14.3207
lhand -27.0329 -67.8213
lfingers 7.12502
lthumb -0.451841 -37.842
rfemur 0 0 0
rtibia 0
rfoot 0 0
rtoes 0
lfemur -11.1818 -8.01327 -12.6072
ltibia 26.0122
lfoot -17.4944 5.60967
ltoes -57.3049
280
root -1.05279 18.7961 5.78087 1.34564 13.093 -2.64617
lowerback 14.6292 2.97292 8.2172
upperback 1.56343 5.50498 3.50998
thorax -6.10878 2.52994 -1.94434
lowerneck 0.587716 2.10945 1.38812
upperneck -3.59537 2.55589 -10.7859
head -1.07988 1.42703 -3.77912
rclavicle -1.76918e-014 9.54166e-015
rhumerus 32.1295 21.168 -56.129
rradius 123.208
rwrist -5.03689
rhand -37.3468 -27.3854
rfingers 7.12502
rthumb -10.4092 -57.1077
lclavicle -1.76918e-014 9.54166e-015
lhumerus -3.01712 -51.6451 86.8954
lradius 117.143
lwrist 14.2864
lhand -27.0326 -67.739
lfingers 7.12502
lthumb -0.451622 -37.7597
rfemur 0 0 0
rtibia 0
rfoot 0 0
rtoes 0
lfemur -11.2473 -8.23969 -12.5905
ltibia 26.0495
lfoot -17.5042 5.47523
ltoes -57.2864
281
root -1.05145 18.7952 5.78546 1.36755 13.4431 -2.60853
lowerback 14.6261 3.02375 8.15755
upperback 1.4919 5.5657 3.46906
thorax -6.18016 2.55601 -1.96806
lowerneck 0.718555 2.11213 1.26125
upperneck -3.62991 2.55509 -10.677
head -1.11686 1.4317 -3.71962
rclavicle -4.01545e-014 2.54444e-014
rhumerus 31.9534 21.2939 -56.0968
rradius 123.382
rwrist -4.97248
rhand -37.3717 -27.4767
rfingers 7.12502
rthumb -10.4332 -57.1978
lclavicle -4.01545e-014 2.54444e-014
lhumerus -3.60625 -51.7241 87.3914
lradius 117.124
lwrist 14.222
lhand -27.0287 -67.6564
lfingers 7.12502
lthumb -0.44777 -37.6771
rfemur 0 0 0
rtibia 0
rfoot 0 0
rtoes 0
lfemur -11.3464 -8.44557 -12.6262
ltibia 26.0857
lfoot -17.482 5.36668
ltoes -57.2885
282
root -1.05115 18.7941 5.78908 1.37086 13.7675 -2.58945
lowerback 14.5912 3.11913 8.08662
upperback 1.48346 5.67952 3.49498
thorax -6.16975 2.6142 -1.91995
lowerneck 0.760261 2.07449 0.998336
upperneck -3.6756 2.49878 -10.5557
head -1.14666 1.40864 -3.62823
rclavicle -1.72943e-014 -2.06736e-014
rhumerus 31.3442 21.56 -56.0245
rradius 123.92
rwrist -4.59939
rhand -37.4969 -27.3306
rfingers 7.12502
rthumb -10.554 -57.0456
lclavicle -1.72943e-014 -2.06736e-014
lhumerus -3.9667 -51.7936 87.8668
lradius 117.076
lwrist 14.2437
lhand -26.9914 -67.7235
lfingers 7.12502
lthumb -0.411749 -37.7442
rfemur 0 0 0
rtibia 0
rfoot 0 0
rtoes 0
lfemur -11.4347 -8.60586 -12.6408
ltibia 26.1276
lfoot -17.4486 5.25426
ltoes -57.4054
283
root -1.05196 18.7938 5.7919 1.33334 14.0904 -2.66918
lowerback 14.6138 3.2105 8.12895
upperback 1.4773 5.81076 3.50189
thorax -6.17444 2.67689 -1.96078
lowerneck 0.671829 2.03318 0.920657
upperneck -3.63572 2.44935 -10.5008
head -1.12251 1.38097 -3.59149
rclavicle 4.57205e-015 9.54166e-015
rhumerus 31.3588 21.4549 -55.9172
rradius 123.895
rwrist -4.61383
rhand -37.6237 -26.9636
rfingers 7.12502
rthumb -10.6763 -56.6723
lclavicle 4.57205e-015 9.54166e-015
lhumerus -4.22725 -51.9305 88.1732
lradius 117.048
lwrist 14.291
lhand -27.0269 -67.6532
lfingers 7.12502
lthumb -0.446086 -37.6739
rfemur 0 0 0
rtibia 0
rfoot 0 0
rtoes 0
lfemur -11.5094 -8.78199 -12.5401
ltibia 26.1729
lfoot -17.4258 5.14359
ltoes -57.4834
284
root -1.05331 18.794 5.79439 1.29561 14.4353 -2.76452
lowerback 14.675 3.21844 8.14428
upperback 1.42114 5.83395 3.47657
thorax -6.26269 2.68235 -2.00664
lowerneck 0.635524 2.07861 1.08411
upperneck -3.55956 2.51941 -10.5729
head -1.0846 1.41138 -3.64612
rclavicle 5.96354e-016 4.6118e-014
rhumerus 31.3647 21.5737 -56.042
rradius 123.919
rwrist -4.66532
rhand -37.5883 -26.6937
rfingers 7.12502
rthumb -10.6421 -56.4042
lclavicle 5.96354e-016 4.6118e-014
lhumerus -4.62256 -51.9407 88.3522
lradius 117.059
lwrist 14.2712
lhand -27.1969 -67.4614
lfingers 7.12502
lthumb -0.610289 -37.4825
rfemur 0 0 0
rtibia 0
rfoot 0 0
rtoes 0
lfemur -11.6007 -8.9174 -12.4163
ltibia 26.2172
lfoot -17.352 4.96332
ltoes -57.4591
285
root -1.05362 18.7933 5.79741 1.26326 14.768 -2.78661
lowerback 14.7118 3.22203 8.05905
upperback 1.39041 5.82928 3.43698
thorax -6.32059 2.67876 -2.00496
lowerneck 0.652904 2.15049 1.38298
upperneck -3.57249 2.61633 -10.7496
head -1.08042 1.45922 -3.76644
rclavicle 9.34288e-015 -4.6118e-014
rhumerus 31.4141 21.7155 -56.1778
rradius 123.966
rwrist -4.75141
rhand -37.4284 -26.7283
rfingers 7.12502
rthumb -10.4879 -56.4467
lclavicle 9.34288e-015 -4.6118e-014
lhumerus -4.95704 -51.8945 88.4332
lradius 117.041
lwrist 14.2629
lhand -27.2189 -67.2269
lfingers 7.12502
lthumb -0.631481 -37.2481
rfemur 0 0 0
rtibia 0
rfoot 0 0
rtoes 0
lfemur -11.6698 -9.0281 -12.3814
ltibia 26.2619
lfoot -17.2663 4.75475
ltoes -57.4018
286
root -1.05233 18.7924 5.80031 1.25369 15.0604 -2.75704
lowerback 14.7878 3.25647 8.02224
upperback 1.34491 5.87253 3.32407
thorax -6.39915 2.69468 -2.11909
lowerneck 0.650949 2.18396 1.58875
upperneck -3.60856 2.66189 -10.7603
head -1.08609 1.48028 -3.8106
rclavicle 6.69904e-014 2.54444e-014
rhumerus 31.4308 21.7152 -56.3389
rradius 123.986
rwrist -4.91474
rhand -37.2526 -26.7118
rfingers 7.12502
rthumb -10.3183 -56.4387
lclavicle 6.69904e-014 2.54444e-014
lhumerus -5.26869 -51.9347 88.4627
lradius 117.026
lwrist 14.299
lhand -27.0451 -67.0621
lfingers 7.12502
lthumb -0.463622 -37.0828
rfemur 0 0 0
rtibia 0
rfoot 0 0
rtoes 0
lfemur -11.7348 -9.16957 -12.4107
ltibia 26.3069
lfoot -17.2308 4.60562
ltoes -57.4368
287
root -1.05029 18.7923 5.8032 1.26556 15.3475 -2.75797
lowerback 14.6841 3.34937 7.92129
upperback 1.39672 5.96659 3.36118
thorax -6.29185 2.75013 -2.03179
lowerneck 0.638277 2.17024 1.41626
upperneck -3.74923 2.63053 -10.734
head -1.13362 1.47144 -3.77045
rclavicle 7.25564e-014 -3.49861e-014
rhumerus 31.5772 21.5742 -56.1578
rradius 124.072
rwrist -5.33453
rhand -36.9452 -26.5367
rfingers 7.12502
rthumb -10.0217 -56.2781
lclavicle 7.25564e-014 -3.49861e-014
lhumerus -5.27881 -51.9662 88.5449
lradius 116.988
lwrist 14.3275
lhand -26.9758 -67.0457
lfingers 7.12502
lthumb -0.396686 -37.0663
rfemur 0 0 0
rtibia 0
rfoot 0 0
rtoes 0
lfemur -11.8331 -9.31076 -12.4044
ltibia 26.3542
lfoot -17.2232 4.49777
ltoes -57.5374
288
root -1.04783 18.7925 5.80643 1.24755 15.6427 -2.80913
lowerback 14.6117 3.43662 7.89559
upperback 1.43819 6.07082 3.4135
thorax -6.20689 2.80734 -1.97387
lowerneck 0.736207 2.12669 1.27021
upperneck -4.00349 2.54539 -10.8004
head -1.2402 1.44389 -3.77245
rclavicle -3.3197e-014 -3.18055e-015
rhumerus 31.6867 21.404 -55.9275
rradius 124.235
rwrist -5.82323
rhand -36.5463 -26.4542
rfingers 7.12502
rthumb -9.63691 -56.2138
lclavicle -3.3197e-014 -3.18055e-015
lhumerus -5.43314 -51.9995 88.7307
lradius 116.926
lwrist 14.2675
lhand -26.9398 -67.1346
lfingers 7.12502
lthumb -0.361969 -37.1551
rfemur 0 0 0
rtibia 0
rfoot 0 0
rtoes 0
lfemur -11.9192 -9.46342 -12.3463
ltibia 26.41
lfoot -17.2123 4.38208
ltoes -57.5565
289
root -1.04603 18.7924 5.80934 1.19254 15.9059 -2.86477
lowerback 14.5965 3.49649 7.85105
upperback 1.46504 6.14145 3.44088
thorax -6.17146 2.84569 -1.9309
lowerneck 0.807183 2.10617 1.28028
upperneck -4.19426 2.49852 -10.8957
head -1.31709 1.43069 -3.81313
rclavicle 2.8625e-014 5.40694e-014
rhumerus 31.801 21.3698 -55.7911
rradius 124.329
rwrist -6.04663
rhand -36.2894 -26.3548
rfingers 7.12502
rthumb -9.38902 -56.1256
lclavicle 2.8625e-014 5.40694e-014
lhumerus -5.67126 -51.951 88.8265
lradius 116.893
lwrist 14.1738
lhand -26.8992 -67.0506
lfingers 7.12502
lthumb -0.322769 -37.0711
rfemur 0 0 0
rtibia 0
rfoot 0 0
rtoes 0
lfemur -11.9655 -9.57127 -12.2878
ltibia 26.4694
lfoot -17.1909 4.19355
ltoes -57.5488
290
root -1.04491 18.7921 5.81185 1.14548 16.1615 -2.91181
lowerback 14.6079 3.54627 7.79071
upperback 1.4755 6.19963 3.45712
thorax -6.17 2.8763 -1.89163
lowerneck 0.754642 2.12901 1.24783
upperneck -4.22177 2.52798 -10.9042
head -1.31479 1.44593 -3.80956
rclavicle 4.77083e-015 -6.67916e-014
rhumerus 31.8831 21.4124 -55.7475
rradius 124.327
rwrist -6.14833
rhand -36.1469 -26.1466
rfingers 7.12502
rthumb -9.25159 -55.9236
lclavicle 4.77083e-015 -6.67916e-014
lhumerus -5.59848 -51.9528 88.6641
lradius 116.892
lwrist 14.1981
lhand -26.924 -66.7892
lfingers 7.12502
lthumb -0.346713 -36.8098
rfemur 0 0 0
rtibia 0
rfoot 0 0
rtoes 0
lfemur -12.0199 -9.63294 -12.2351
ltibia 26.5275
lfoot -17.1564 4.0033
ltoes -57.6014
291
root -1.04304 18.7909 5.81374 1.13467 16.4357 -2.91159
lowerback 14.6279 3.59268 7.71005
upperback 1.46021 6.25093 3.44484
thorax -6.20041 2.90175 -1.87189
lowerneck 0.723398 2.14715 1.18859
upperneck -4.24212 2.55138 -10.8909
head -1.31489 1.45855 -3.79341
rclavicle 8.94531e-014 3.18055e-015
rhumerus 31.9533 21.3977 -55.7421
rradius 124.306
rwrist -6.2567
rhand -35.9965 -26.1355
rfingers 7.12502
rthumb -9.10643 -55.9189
lclavicle 8.94531e-014 3.18055e-015
lhumerus -5.55531 -51.9907 88.5277
lradius 116.877
lwrist 14.2899
lhand -26.8976 -66.8352
lfingers 7.12502
lthumb -0.321183 -36.8557
rfemur 0 0 0
rtibia 0
rfoot 0 0
rtoes 0
lfemur -12.0953 -9.74928 -12.2337
ltibia 26.5808
lfoot -17.127 3.91524
ltoes -57.6409
292
root -1.04027 18.7895 5.81606 1.132 16.6859 -2.92462
lowerback 14.6399 3.63748 7.65249
upperback 1.44158 6.3032 3.4335
thorax -6.22768 2.92714 -1.86346
lowerneck 0.713832 2.15519 1.14918
upperneck -4.301 2.55723 -10.8954
head -1.33224 1.46427 -3.78852
rclavicle 1.55052e-014 -2.54444e-014
rhumerus 32.0257 21.3567 -55.7194
rradius 124.313
rwrist -6.30647
rhand -35.9255 -26.1943
rfingers 7.12502
rthumb -9.0379 -55.9806
lclavicle 1.55052e-014 -2.54444e-014
lhumerus -5.65409 -51.9803 88.4872
lradius 116.875
lwrist 14.3691
lhand -26.8351 -66.9618
lfingers 7.12502
lthumb -0.26087 -36.9822
rfemur 0 0 0
rtibia 0
rfoot 0 0
rtoes 0
lfemur -12.1654 -9.82098 -12.22
ltibia 26.6209
lfoot -17.1118 3.79506
ltoes -57.6548
293
root -1.03469 18.7887 5.81772 1.12702 16.8905 -2.96367
lowerback 14.6648 3.68474 7.65916
upperback 1.41548 6.3704 3.41743
thorax -6.26164 2.95748 -1.89899
lowerneck 0.708508 2.16627 1.18773
upperneck -4.35517 2.5678 -10.9409
head -1.34735 1.47168 -3.81312
rclavicle 2.84262e-014 4.13472e-014
rhumerus 32.0431 21.3521 -55.7409
rradius 124.249
rwrist -6.12997
rhand -36.0148 -25.9461
rfingers 7.12502
rthumb -9.12411 -55.7287
lclavicle 2.84262e-014 4.13472e-014
lhumerus -5.74274 -51.9647 88.4391
lradius 116.912
lwrist 14.4414
lhand -26.7851 -66.8501
lfingers 7.12502
lthumb -0.212547 -36.8705
rfemur 0 0 0
rtibia 0
rfoot 0 0
rtoes 0
lfemur -12.227 -9.88012 -12.19
ltibia 26.6482
lfoot -17.1101 3.65663
ltoes -57.6567
